<svg xmlns="http://www.w3.org/2000/svg" width="21" height="21" fill="none" viewBox="0 0 21 21">
    <path fill="#000" d="M10.8 9.412c-1.777 0-5.44 2.888-6.263 6.179-.416 1.664-.338 2.832.239 3.571.26.294.586.523.95.669.365.145.759.203 1.15.169.753-.028 1.487-.244 2.136-.628.527-.358 1.149-.549 1.785-.549.637 0 1.26.191 1.786.549.649.384 1.383.6 2.136.628.391.034.785-.024 1.15-.17.364-.145.69-.374.95-.668.577-.739.655-1.907.239-3.571-.818-3.291-4.481-6.179-6.258-6.179zm5.405 9.267c-.189.198-.421.35-.679.443-.257.094-.533.126-.805.094-.631-.033-1.244-.222-1.785-.549-.637-.41-1.379-.627-2.136-.627-.757 0-1.499.217-2.136.627-.54.327-1.154.516-1.785.549-.272.032-.548 0-.805-.094-.258-.093-.49-.245-.679-.443-.413-.528-.445-1.5-.1-2.9.75-3 4.15-5.586 5.5-5.586 1.35 0 4.752 2.586 5.5 5.586.349 1.395.316 2.369-.1 2.9h.01zM7.663 8.627c1.54 0 2.745-1.895 2.745-4.314S9.202-.001 7.663-.001c-1.539 0-2.745 1.896-2.745 4.315 0 2.419 1.206 4.313 2.745 4.313zm0-7.843c1.063 0 1.961 1.616 1.961 3.529 0 1.913-.9 3.529-1.96 3.529-1.062 0-1.962-1.616-1.962-3.529C5.702 2.4 6.6.784 7.663.784zM5.743 10.706c.097-.846-.041-1.703-.4-2.476-.8-1.811-2.37-2.813-3.577-2.28-1.206.533-1.529 2.368-.729 4.179.33.786.869 1.465 1.56 1.964.388.282.853.441 1.333.456.236.001.469-.047.684-.142.32-.161.591-.403.789-.7.198-.299.315-.643.34-1v-.001zM4.3 11.69c-.214.07-.442.083-.662.04-.221-.043-.427-.142-.599-.287-.569-.416-1.012-.98-1.282-1.632-.6-1.362-.45-2.8.328-3.145.117-.05.244-.076.371-.075.742 0 1.662.8 2.173 1.954.299.638.417 1.346.34 2.047-.009.225-.075.444-.192.636s-.281.351-.477.462zM13.937 8.627c1.539 0 2.745-1.895 2.745-4.314S15.476-.001 13.937-.001c-1.539 0-2.745 1.895-2.745 4.314s1.206 4.314 2.745 4.314zm0-7.843c1.063 0 1.961 1.616 1.961 3.529 0 1.913-.9 3.529-1.961 3.529s-1.961-1.616-1.961-3.529c0-1.913.898-3.529 1.961-3.529zM19.832 5.949c-1.2-.532-2.778.471-3.577 2.28-.359.773-.497 1.63-.4 2.476.025.357.141.701.34 1 .197.297.469.539.788.7.216.094.449.142.684.14.48-.016.945-.175 1.333-.458.69-.499 1.23-1.178 1.56-1.964.8-1.81.477-3.645-.73-4.178l.002.004zm.012 3.862c-.27.651-.713 1.216-1.282 1.632-.16.165-.366.277-.591.32-.226.044-.459.018-.669-.075-.21-.092-.386-.247-.505-.443-.12-.196-.176-.424-.162-.653-.076-.7.041-1.409.34-2.047.6-1.362 1.765-2.223 2.543-1.879.778.344.926 1.784.326 3.145z"/>
</svg>
